<svg xmlns="http://www.w3.org/2000/svg" width="20" height="20"><defs><style>.icon{display:none}.icon:target{display:inline}</style></defs><g id="dot-primary" class="icon"><circle cx="10" cy="10" r="5" fill="#171C56"/></g><g id="dot-mint" class="icon"><circle cx="10" cy="10" r="5" fill="#5AC39A"/></g><g id="dot-grey" class="icon"><circle cx="10" cy="10" r="5" fill="#D3D3D3"/></g><g id="dash-primary" class="icon"><path fill="#171C56" d="M4 9h12v2H4z"/></g><g id="dash-mint" class="icon"><path fill="#5AC39A" d="M4 9h12v2H4z"/></g><g id="dash-grey" class="icon"><path fill="#D3D3D3" d="M4 9h12v2H4z"/></g><g id="check-primary" class="icon"><path fill="#181C56" d="M9.046 11.4l-1.97-2L5.6 10.9l3.446 3.5 6.4-6.5-1.477-1.5z"/></g><g id="check-mint" class="icon"><path fill="#5AC39A" d="M9.046 11.4l-1.97-2L5.6 10.9l3.446 3.5 6.4-6.5-1.477-1.5z"/></g><g id="check-grey" class="icon"><path fill="#D3D3D3" d="M9.046 11.4l-1.97-2L5.6 10.9l3.446 3.5 6.4-6.5-1.477-1.5z"/></g><g id="check-grey-20" class="icon"><path fill="#D3D3D3" d="M9.046 11.4l-1.97-2L5.6 10.9l3.446 3.5 6.4-6.5-1.477-1.5z"/></g><g id="check-blue-20" class="icon"><path fill="#393D79" d="M9.046 11.4l-1.97-2L5.6 10.9l3.446 3.5 6.4-6.5-1.477-1.5z"/></g></svg>